<svg width="11" height="13" viewBox="0 0 11 13" fill="none" xmlns="http://www.w3.org/2000/svg">
<rect width="9.51731" height="12.2254" fill="black" fill-opacity="0" transform="translate(0.580566 0.201172)"/>
<rect width="9.51731" height="12.2254" fill="black" fill-opacity="0" transform="translate(0.580566 0.201172)"/>
<path d="M9.37688 6.27596C8.95267 5.97927 8.34837 5.86061 8.34837 5.86061C8.34837 5.86061 8.85975 5.5853 9.06872 5.31026C9.27792 5.03511 9.38246 4.60881 9.39995 4.38762C9.41732 4.16633 9.45806 3.23846 8.67943 2.7044C8.07717 2.29116 7.38698 2.12712 6.46017 2.07375V0.201172H5.21683V2.05162H4.2698V0.201172H3.02657V2.05162H0.580566V3.2506H1.29951C1.49552 3.2506 1.84413 3.27083 1.99226 3.42479C2.14044 3.57847 2.16659 3.65946 2.16659 3.95874L2.16665 8.73623C2.16665 8.84949 2.1434 8.98969 2.03874 9.08148C1.93426 9.17326 1.82972 9.19469 1.57978 9.19469H0.836196L0.580566 10.5814H3.02657V12.4266H4.26986V10.5814H5.21689V12.4266H6.46023V10.551C6.78164 10.5335 7.08132 10.5109 7.25612 10.4897C7.6106 10.4466 8.41229 10.3603 9.16193 9.87466C9.91132 9.389 10.0797 8.62825 10.0972 7.86221C10.1148 7.09612 9.80068 6.57269 9.37688 6.27596ZM4.2698 3.35728C4.2698 3.35728 4.66484 3.32496 5.05412 3.33024C5.44352 3.33559 5.78614 3.34643 6.29758 3.49213C6.80878 3.63788 7.11067 3.99397 7.12252 4.41482C7.13409 4.83567 6.93633 5.11611 6.5879 5.29418C6.23935 5.4722 5.75738 5.56933 5.304 5.58536C4.85091 5.6016 4.2698 5.58536 4.2698 5.58536V3.35728ZM7.05273 8.87642C6.76804 9.02217 6.19862 9.15162 5.64679 9.18929C5.0948 9.22712 4.2698 9.21093 4.2698 9.21093V6.73447C4.2698 6.73447 5.05999 6.6968 5.67591 6.73447C6.29171 6.7724 6.80878 6.91794 7.04105 7.02602C7.27344 7.13384 7.68027 7.37116 7.68027 7.93776C7.68027 8.50414 7.33724 8.73078 7.05273 8.87642Z" fill="#99CEFF"/>
</svg>
