<svg width="13" height="11" viewBox="0 0 13 11" fill="none" xmlns="http://www.w3.org/2000/svg">
<path d="M12.1627 4.34643L12.4592 2.82909C12.4592 2.72793 12.4098 2.65207 12.3109 2.65207H10.3588L10.6553 1.03357C10.68 0.957703 10.6059 0.881836 10.5318 0.881836H8.67849C8.53023 0.881836 8.38196 1.00828 8.35725 1.16002L7.69007 4.62461H5.39199L6.08389 1.03357C6.08389 0.957703 6.00976 0.881836 5.91092 0.881836H4.05763C3.90937 0.881836 3.7611 1.00828 3.73639 1.16002L3.43987 2.65207H1.61129C1.46303 2.65207 1.31476 2.77851 1.29005 2.93025L0.993528 4.44759C0.968818 4.54874 1.04295 4.62461 1.11708 4.62461H3.06921L2.69855 6.59716H0.845265C0.697003 6.59716 0.54874 6.7236 0.524029 6.87533L0.227503 8.39268C0.202793 8.49383 0.276924 8.5697 0.351056 8.5697H2.30318L2.00666 10.1882C1.98195 10.2894 2.05608 10.3652 2.13021 10.3652H3.9835C4.13176 10.3652 4.28002 10.2388 4.30473 10.087L4.97192 6.62244H7.26999L6.5781 10.2135C6.55339 10.3146 6.62752 10.3905 6.70165 10.3905H8.62907C8.77733 10.3905 8.92559 10.2641 8.9503 10.1123L9.24683 8.62028H11.1001C11.2484 8.62028 11.3966 8.49383 11.4214 8.3421L11.7179 6.82476C11.7426 6.7236 11.6685 6.64773 11.5943 6.64773H9.6422L10.0129 4.67519H11.8661C11.9897 4.62461 12.138 4.49817 12.1627 4.34643Z" fill="#99CEFF"/>
</svg>
