<svg width="84" height="51" viewBox="0 0 84 51" fill="none" xmlns="http://www.w3.org/2000/svg">
<rect width="82.3617" height="50.5715" fill="black" fill-opacity="0" transform="translate(0.638184 0.170654)"/>
<g opacity="0.3">
<rect width="77.7229" height="41.2578" fill="black" fill-opacity="0" transform="translate(0.638184 0.170654)"/>
<path d="M7.11572 35.7253L30.8654 11.9587" stroke="white" stroke-width="2"/>
<ellipse cx="7.70397" cy="34.3764" rx="7.06579" ry="7.05213" fill="white"/>
<ellipse cx="30.079" cy="13.0995" rx="7.06579" ry="7.05213" fill="white"/>
<path d="M28.7061 11.9587L51.8551 33.6846" stroke="white" stroke-width="2"/>
<ellipse cx="51.2762" cy="34.256" rx="7.06579" ry="7.05213" fill="white"/>
<path d="M72.2464 7.15747L51.8552 33.6849" stroke="white" stroke-width="2"/>
<ellipse cx="71.2953" cy="7.22279" rx="7.06579" ry="7.05213" fill="white"/>
</g>
<rect width="18.7802" height="18.78" fill="black" fill-opacity="0" transform="translate(64.2197 31.9622)"/>
<path d="M82.9999 36.5L81.4999 40L77.4999 39" stroke="#99CEFF" stroke-width="2" stroke-miterlimit="6.40657" stroke-linecap="round"/>
<path d="M81.3084 45.3331C81.5622 44.8426 81.3703 44.2392 80.8798 43.9854C80.3893 43.7316 79.7859 43.9236 79.5321 44.4141L81.3084 45.3331ZM67.17 43.0779C66.217 39.5213 68.3277 35.8656 71.8842 34.9126L71.3666 32.9808C66.7431 34.2196 63.9993 38.972 65.2382 43.5955L67.17 43.0779ZM71.8842 34.9126C75.4408 33.9597 79.0965 36.0703 80.0495 39.6268L81.9813 39.1092C80.7425 34.4857 75.9901 31.7419 71.3666 32.9808L71.8842 34.9126ZM75.3353 47.7921C71.7787 48.7451 68.123 46.6345 67.17 43.0779L65.2382 43.5955C66.477 48.219 71.2294 50.9628 75.8529 49.7239L75.3353 47.7921ZM79.5321 44.4141C78.6995 46.0232 77.221 47.2868 75.3353 47.7921L75.8529 49.7239C78.3045 49.0671 80.2283 47.4208 81.3084 45.3331L79.5321 44.4141Z" fill="#99CEFF"/>
</svg>
